<svg xmlns="http://www.w3.org/2000/svg" viewBox="0 0 1200 800">
    <title>Legal Background</title>
    <style>
        .dark-overlay { fill: #000000; opacity: 0.7; }
    </style>
    
    <!-- Background Texture -->
    <defs>
        <pattern id="paper-texture" patternUnits="userSpaceOnUse" width="200" height="200">
            <rect width="200" height="200" fill="#f5f2e9"/>
            <rect width="200" height="200" fill="#2d3748" opacity="0.03"/>
            <rect width="100" height="100" fill="#b69566" opacity="0.02"/>
            <rect width="100" height="100" x="100" y="100" fill="#b69566" opacity="0.02"/>
        </pattern>
    </defs>
    
    <!-- Base Background -->
    <rect width="1200" height="800" fill="url(#paper-texture)"/>
    
    <!-- Law Elements -->
    <!-- Columns -->
    <rect x="50" y="100" width="80" height="700" fill="#e4d4ba" opacity="0.4"/>
    <rect x="1070" y="100" width="80" height="700" fill="#e4d4ba" opacity="0.4"/>
    
    <!-- Books -->
    <rect x="200" y="600" width="300" height="30" fill="#8b4513" opacity="0.6"/>
    <rect x="220" y="570" width="280" height="30" fill="#2d3748" opacity="0.6"/>
    <rect x="240" y="540" width="260" height="30" fill="#b69566" opacity="0.6"/>
    
    <rect x="700" y="650" width="280" height="30" fill="#8b4513" opacity="0.6"/>
    <rect x="720" y="620" width="260" height="30" fill="#2d3748" opacity="0.6"/>
    <rect x="740" y="590" width="240" height="30" fill="#b69566" opacity="0.6"/>
    
    <!-- Scales of Justice Outline -->
    <g transform="translate(600, 300) scale(3)" opacity="0.15">
        <!-- Base -->
        <rect x="23" y="70" width="4" height="25" fill="#2d3748"/>
        <rect x="10" y="95" width="30" height="5" rx="1" fill="#2d3748"/>
        
        <!-- Center Pole -->
        <rect x="24" y="25" width="2" height="45" fill="#2d3748"/>
        
        <!-- Center Piece -->
        <circle cx="25" cy="25" r="5" fill="#2d3748"/>
        
        <!-- Cross Bar -->
        <rect x="0" y="23" width="50" height="4" rx="1" fill="#2d3748"/>
        
        <!-- Left Scale -->
        <line x1="0" y1="25" x2="13" y2="50" stroke="#2d3748" stroke-width="2"/>
        <circle cx="13" cy="50" r="10" fill="#2d3748"/>
        
        <!-- Right Scale -->
        <line x1="50" y1="25" x2="37" y2="50" stroke="#2d3748" stroke-width="2"/>
        <circle cx="37" cy="50" r="10" fill="#2d3748"/>
    </g>
    
    <!-- Paragraph Text Imitation -->
    <g opacity="0.2">
        <rect x="200" y="150" width="800" height="3" fill="#2d3748"/>
        <rect x="200" y="160" width="780" height="3" fill="#2d3748"/>
        <rect x="200" y="170" width="790" height="3" fill="#2d3748"/>
        <rect x="200" y="180" width="770" height="3" fill="#2d3748"/>
        <rect x="200" y="190" width="800" height="3" fill="#2d3748"/>
        
        <rect x="200" y="210" width="800" height="3" fill="#2d3748"/>
        <rect x="200" y="220" width="760" height="3" fill="#2d3748"/>
        <rect x="200" y="230" width="790" height="3" fill="#2d3748"/>
        <rect x="200" y="240" width="800" height="3" fill="#2d3748"/>
        <rect x="200" y="250" width="750" height="3" fill="#2d3748"/>
    </g>
    
    <!-- Dark Overlay -->
    <rect class="dark-overlay" width="1200" height="800"/>
</svg>