<svg xmlns="http://www.w3.org/2000/svg" viewBox="0 0 120 150">
    <title>Law Books</title>
    <style>
        .book1 { fill: #8b4513; stroke: #2d3748; stroke-width: 1; }
        .book2 { fill: #b69566; stroke: #2d3748; stroke-width: 1; }
        .book3 { fill: #2d3748; stroke: #b69566; stroke-width: 1; }
        .book4 { fill: #e4d4ba; stroke: #2d3748; stroke-width: 1; }
        .book5 { fill: #a05c17; stroke: #2d3748; stroke-width: 1; }
        .gold-text { fill: #b69566; }
        .dark-text { fill: #2d3748; }
        .light-text { fill: #e4d4ba; }
    </style>
    
    <!-- Bottom Book -->
    <rect class="book1" x="10" y="120" width="100" height="25" rx="2"/>
    <rect class="gold-text" x="15" y="130" width="70" height="3"/>
    <rect class="gold-text" x="15" y="136" width="50" height="3"/>
    
    <!-- Second Book -->
    <rect class="book2" x="15" y="95" width="95" height="25" rx="2"/>
    <rect class="dark-text" x="20" y="105" width="65" height="3"/>
    <rect class="dark-text" x="20" y="111" width="40" height="3"/>
    
    <!-- Third Book -->
    <rect class="book3" x="8" y="70" width="90" height="25" rx="2"/>
    <rect class="gold-text" x="13" y="80" width="60" height="3"/>
    <rect class="gold-text" x="13" y="86" width="45" height="3"/>
    
    <!-- Fourth Book -->
    <rect class="book4" x="13" y="45" width="85" height="25" rx="2"/>
    <rect class="dark-text" x="18" y="55" width="55" height="3"/>
    <rect class="dark-text" x="18" y="61" width="40" height="3"/>
    
    <!-- Top Book -->
    <rect class="book5" x="20" y="20" width="80" height="25" rx="2"/>
    <rect class="light-text" x="25" y="30" width="50" height="3"/>
    <rect class="light-text" x="25" y="36" width="35" height="3"/>
    
    <!-- Bookmark -->
    <path d="M60,20 L70,20 L65,30 z" fill="#e4d4ba"/>
</svg>